HIERARCHY
ROOT SpineBase
{
  OFFSET 0.000000 0.000000 0.000000
  CHANNELS 6 Xposition Yposition Zposition Zrotation Xrotation Yrotation
  JOINT SpineMid
  {
    OFFSET 0.000000 31.332287 0.000000
    CHANNELS 3 Zrotation Xrotation Yrotation
    JOINT SpineShoulder
    {
      OFFSET -0.885453 23.043411 -0.729785
      CHANNELS 3 Zrotation Xrotation Yrotation
      JOINT Neck
      {
        OFFSET -0.620992 7.629180 -0.685635
        CHANNELS 3 Zrotation Xrotation Yrotation
        JOINT Head
        {
          OFFSET -2.862445 8.831141 3.974226
          CHANNELS 3 Zrotation Xrotation Yrotation
          End Site
          {
            OFFSET 0 0 0
          }
        }
      }
      JOINT ShoulderLeft
      {
        OFFSET -9.802651 -7.748423 -13.069305
        CHANNELS 3 Zrotation Xrotation Yrotation
        JOINT ElbowLeft
        {
          OFFSET 1.657934 -27.006851 -3.411081
          CHANNELS 3 Zrotation Xrotation Yrotation
          JOINT WristLeft
          {
            OFFSET -1.588930 -8.400592 24.284149
            CHANNELS 3 Zrotation Xrotation Yrotation
            JOINT HandLeft
            {
              OFFSET 2.402056 -8.639646 0.998672
              CHANNELS 3 Zrotation Xrotation Yrotation
              JOINT HandTipLeft
              {
                OFFSET -0.546562 -0.314978 0.001404
                CHANNELS 3 Zrotation Xrotation Yrotation
                End Site
                {
                  OFFSET 0 0 0
                }
              }
              JOINT ThumbLeft
              {
                OFFSET -0.224981 0.825226 -2.802746
                CHANNELS 3 Zrotation Xrotation Yrotation
                End Site
                {
                  OFFSET 0 0 0
                }
              }
            }
          }
        }
      }
      JOINT ShoulderRight
      {
        OFFSET 0.493955 -4.757530 -10.763863
        CHANNELS 3 Zrotation Xrotation Yrotation
        JOINT ElbowRight
        {
          OFFSET -6.840802 -23.567100 -2.136969
          CHANNELS 3 Zrotation Xrotation Yrotation
          JOINT WristRight
          {
            OFFSET -4.738390 -20.333698 2.909751
            CHANNELS 3 Zrotation Xrotation Yrotation
            JOINT HandRight
            {
              OFFSET -0.568998 -9.598642 0.905850
              CHANNELS 3 Zrotation Xrotation Yrotation
              JOINT HandTipRight
              {
                OFFSET -6.434688 -6.916892 3.054021
                CHANNELS 3 Zrotation Xrotation Yrotation
                End Site
                {
                  OFFSET 0 0 0
                }
              }
              JOINT ThumbRight
              {
                OFFSET 3.994203 -1.622118 -2.800279
                CHANNELS 3 Zrotation Xrotation Yrotation
                End Site
                {
                  OFFSET 0 0 0
                }
              }
            }
          }
        }
      }
    }
  }
  JOINT HipLeft
  {
    OFFSET -5.203872 0.804181 -0.542877
    CHANNELS 3 Zrotation Xrotation Yrotation
    JOINT KneeLeft
    {
      OFFSET 16.038112 -42.656224 2.219800
      CHANNELS 3 Zrotation Xrotation Yrotation
      JOINT AnkleLeft
      {
        OFFSET 12.017475 -37.416020 11.148248
        CHANNELS 3 Zrotation Xrotation Yrotation
        JOINT FootLeft
        {
          OFFSET -7.445815 -0.501466 -9.200534
          CHANNELS 3 Zrotation Xrotation Yrotation
          End Site
          {
            OFFSET 0 0 0
          }
        }
      }
    }
  }
  JOINT HipRight
  {
    OFFSET 3.919336 1.018779 -6.714592
    CHANNELS 3 Zrotation Xrotation Yrotation
    JOINT KneeRight
    {
      OFFSET 1.871907 -44.656364 4.890382
      CHANNELS 3 Zrotation Xrotation Yrotation
      JOINT AnkleRight
      {
        OFFSET 6.557057 -33.532306 2.470353
        CHANNELS 3 Zrotation Xrotation Yrotation
        JOINT FootRight
        {
          OFFSET -4.250046 -4.446620 -1.980101
          CHANNELS 3 Zrotation Xrotation Yrotation
          End Site
          {
            OFFSET 0 0 0
          }
        }
      }
    }
  }
}
MOTION
Frames: 15
Frame Time: 0.033333
56.987352 82.702524 304.149304 1.466026 0.018202 32.914827 -1.240664 0.781288 -32.906600 -2.331934 0.642470 -0.144540 0.179473 -1.910958 0.688339 0.000000 0.000000 0.000000 2.748308 0.159207 0.168377 0.806016 -4.176172 3.900917 1.534248 5.363676 -3.162040 49.012781 -0.614515 -15.593203 0.000000 0.000000 0.000000 0.000000 0.000000 0.000000 4.450361 4.600111 -1.617404 1.566723 -4.689901 2.328021 -6.461744 -16.086924 -0.168332 9.794144 20.239968 -5.046744 0.000000 0.000000 0.000000 0.000000 0.000000 0.000000 -3.521814 0.087134 -33.657648 1.340039 7.128906 2.450024 22.810980 -32.805402 0.561505 0.000000 0.000000 0.000000 -2.749479 1.092845 -33.062563 2.200273 -0.024326 0.111273 -3.492266 0.968630 0.926542 0.000000 0.000000 0.000000
56.930312 82.737256 304.327866 1.407128 -0.128707 32.508114 -1.117583 0.864682 -32.498100 -2.392073 0.541956 -0.159918 0.363326 -1.592723 0.724440 0.000000 0.000000 0.000000 2.662273 0.592241 0.216983 0.722716 -3.484154 3.144625 -1.996182 8.304472 -1.549556 60.121395 -3.989062 -7.062512 0.000000 0.000000 0.000000 0.000000 0.000000 0.000000 4.181180 6.830884 -2.216271 -3.114823 -10.304260 2.368261 -7.070165 -17.526393 -1.182127 14.637932 22.146545 -3.736401 0.000000 0.000000 0.000000 0.000000 0.000000 0.000000 -3.536551 -0.009904 -33.331359 1.474971 7.624111 2.648347 22.866112 -33.347874 0.491637 0.000000 0.000000 0.000000 -2.466462 1.414710 -32.639168 2.193280 -0.207112 0.127583 -2.958699 0.421437 1.065619 0.000000 0.000000 0.000000
56.827491 82.730236 304.552596 1.350330 -0.279450 31.816808 -1.000223 0.949271 -31.805229 -2.454985 0.428154 -0.177007 0.665359 -1.208967 0.727564 0.000000 0.000000 0.000000 2.235179 1.944696 0.369863 -0.552567 -3.631328 -2.083186 -1.694446 9.949719 4.325819 -5.685859 -15.407504 7.212986 0.000000 0.000000 0.000000 0.000000 0.000000 0.000000 3.308234 10.010411 -2.972157 -9.536520 -17.035951 1.007533 -11.955021 -20.625979 -3.701656 24.371417 27.761500 -6.312713 0.000000 0.000000 0.000000 0.000000 0.000000 0.000000 -3.478820 -0.212890 -32.733222 1.787022 8.029596 2.870596 23.384933 -33.180344 4.057765 0.000000 0.000000 0.000000 -2.142022 1.777113 -31.927888 2.248820 -0.513717 0.135910 -2.477534 0.030855 1.113118 0.000000 0.000000 0.000000
56.689054 82.677236 304.785023 1.276208 -0.411752 30.926294 -0.883290 1.009008 -30.913930 -2.511154 0.336439 -0.191346 0.863752 -1.011512 0.713645 0.000000 0.000000 0.000000 4.453398 4.566900 0.186926 -5.857525 -4.115226 -11.925824 -16.358167 5.095521 12.780485 -15.093051 -19.037477 6.062383 0.000000 0.000000 0.000000 0.000000 0.000000 0.000000 1.751938 12.559335 -3.360977 -16.239140 -21.634852 -1.982928 -20.326835 -25.045055 -7.990126 32.725208 33.223377 -8.940315 0.000000 0.000000 0.000000 0.000000 0.000000 0.000000 -3.373537 -0.524060 -31.952645 2.083733 8.818666 3.224720 23.799216 -33.608569 6.853479 0.000000 0.000000 0.000000 -1.786544 2.126180 -31.016280 2.354369 -0.903278 0.138109 -2.367387 0.164859 0.853612 0.000000 0.000000 0.000000
56.554984 82.639845 305.050813 1.325954 -0.535429 30.222498 -0.876391 1.129967 -30.207660 -2.359097 0.255812 -0.186302 0.707100 -1.105063 0.649964 0.000000 0.000000 0.000000 2.894178 7.485470 0.564132 -9.273191 -6.304218 -26.742288 -35.150731 -5.712977 21.460664 -6.003063 -18.868180 3.874974 0.000000 0.000000 0.000000 0.000000 0.000000 0.000000 -1.460310 14.396706 -3.191702 -24.885831 -23.676714 -7.178247 -28.563595 -27.482849 -13.477505 38.508544 37.008158 -10.242341 0.000000 0.000000 0.000000 0.000000 0.000000 0.000000 -3.380598 -0.715217 -31.339482 2.051882 9.519514 3.477535 24.244247 -34.375723 7.572891 0.000000 0.000000 0.000000 -1.508976 2.545598 -30.287374 2.459093 -1.355933 0.132790 -1.861774 -0.075316 0.807662 0.000000 0.000000 0.000000
56.446762 82.638740 305.321889 1.506573 -0.553646 30.702386 -1.012963 1.245103 -30.684099 -2.016229 0.251980 -0.156528 0.117258 -1.587969 0.562660 0.000000 0.000000 0.000000 -1.251920 9.952776 1.468294 -11.770881 -7.538234 -45.656985 -55.085010 -26.911644 21.780263 11.199814 -14.814499 3.669101 0.000000 0.000000 0.000000 0.000000 0.000000 0.000000 -5.894185 15.193868 -2.508718 -35.941551 -22.615496 -13.930959 -32.412729 -23.617868 -15.644907 43.885672 36.150392 -10.737807 0.000000 0.000000 0.000000 0.000000 0.000000 0.000000 -3.473814 -0.635456 -31.814410 1.939450 10.197908 3.695481 27.147842 -37.609828 8.410124 0.000000 0.000000 0.000000 -1.387992 2.893858 -30.746678 2.557374 -1.739111 0.126033 -1.883788 -0.365342 1.067196 0.000000 0.000000 0.000000
56.324983 82.611052 305.575663 1.725043 -0.524104 30.899443 -1.211384 1.335361 -30.877435 -1.602058 0.273140 -0.118095 -0.572553 -2.283099 0.411013 0.000000 0.000000 0.000000 -7.296891 11.665651 2.852390 -12.778643 -7.722713 -64.491224 -74.716584 -48.061043 9.442212 31.814774 -7.535884 5.236266 0.000000 0.000000 0.000000 0.000000 0.000000 0.000000 -11.374915 15.741615 -1.533677 -45.737098 -18.519023 -19.779140 -30.993377 -22.342756 -17.867554 46.786949 43.980617 -14.385353 0.000000 0.000000 0.000000 0.000000 0.000000 0.000000 -4.109220 -0.250381 -32.012879 2.188233 10.446962 3.744949 23.421833 -35.763386 3.549665 0.000000 0.000000 0.000000 -1.264736 3.139706 -30.918079 2.475231 -2.058261 0.107528 -0.980676 -1.021458 1.278398 0.000000 0.000000 0.000000
56.382022 82.786907 305.896187 2.228937 -0.513992 33.627192 -1.235800 0.888002 -33.597071 -1.774061 0.787836 -0.059437 -1.224097 -3.471449 0.009168 0.000000 0.000000 0.000000 -15.821670 11.767318 4.649416 -10.525386 -6.884096 -79.026788 -95.352542 -61.255911 -12.158588 44.126615 2.199135 5.993736 0.000000 0.000000 0.000000 0.000000 0.000000 0.000000 -18.308527 15.744602 -0.191613 -50.015220 -12.073757 -22.222665 -26.320873 -20.578714 -17.940499 43.437457 48.283682 -14.657870 0.000000 0.000000 0.000000 0.000000 0.000000 0.000000 -4.211657 0.607704 -34.509387 1.717050 10.046532 3.517828 20.408741 -33.649602 -0.838614 0.000000 0.000000 0.000000 -1.485849 3.525860 -33.636394 2.391191 -2.084195 0.107567 0.248422 -2.024461 1.712592 0.000000 0.000000 0.000000
56.559737 83.108406 306.266229 2.895720 -0.543795 37.578585 -1.173748 1.054326 -37.524023 -1.322353 0.424294 -0.020692 -2.308665 -3.816055 -0.281236 0.000000 0.000000 0.000000 -26.205832 9.601208 6.216473 -6.213674 -5.315033 -87.988265 -111.690311 -68.030811 -31.608388 51.636767 15.141258 5.780871 0.000000 0.000000 0.000000 0.000000 0.000000 0.000000 -25.898130 15.469699 1.343745 -48.884838 -6.118391 -21.649280 -22.375382 -21.016003 -18.777684 39.983353 52.331819 -14.900671 0.000000 0.000000 0.000000 0.000000 0.000000 0.000000 -3.869103 1.644496 -38.126787 1.006676 9.382949 3.195803 17.817811 -31.577243 -4.734263 0.000000 0.000000 0.000000 -1.839760 4.064685 -37.582629 2.412544 -2.097614 0.101298 0.947289 -2.195752 1.681387 0.000000 0.000000 0.000000
56.857256 83.616942 306.727510 3.714461 -0.640799 46.544562 -0.987233 1.390545 -46.461418 -2.025748 0.402329 -0.041622 -2.215415 -4.377688 -0.519392 0.000000 0.000000 0.000000 -35.335478 4.815723 6.526685 -0.934187 -2.752083 -92.115453 -124.197834 -70.686131 -45.038503 57.919579 24.538505 4.953293 0.000000 0.000000 0.000000 0.000000 0.000000 0.000000 -31.745163 14.852043 2.618387 -44.199592 -4.639863 -21.006941 -25.773270 -16.044587 -15.371129 39.761737 40.809764 -12.840855 0.000000 0.000000 0.000000 0.000000 0.000000 0.000000 -1.872594 2.100256 -46.637392 -1.267254 8.575216 2.730130 19.123218 -30.915155 1.586794 0.000000 0.000000 0.000000 -2.408416 4.660323 -46.555519 2.584069 -1.540906 0.097022 1.029163 -1.354218 1.066920 0.000000 0.000000 0.000000
57.196879 84.143838 307.124367 4.500892 -0.645590 49.442018 -0.983418 1.541507 -49.333113 -1.701323 0.907496 0.058556 -2.930397 -5.440629 -0.988746 0.000000 0.000000 0.000000 -44.711768 -3.580972 3.944402 3.337235 -0.513467 -89.839711 -116.260162 -71.259825 -16.357739 60.399658 17.109052 -4.265103 0.000000 0.000000 0.000000 0.000000 0.000000 0.000000 -38.131389 12.195768 3.259861 -37.998379 -3.953258 -19.548873 -22.563976 -9.244169 -7.150674 34.456531 22.319139 -11.886841 0.000000 0.000000 0.000000 0.000000 0.000000 0.000000 -1.119805 3.055772 -49.154949 -1.945965 7.976132 2.392285 18.542486 -30.601330 1.233963 0.000000 0.000000 0.000000 -2.988552 5.501657 -49.439519 2.772458 -1.563976 0.089931 0.427775 0.106931 0.143919 0.000000 0.000000 0.000000
57.482822 84.559107 307.434699 5.223845 -0.550417 48.474405 -1.084795 1.586925 -48.343050 -1.703927 0.951583 0.094944 -3.735641 -5.897359 -1.114661 0.000000 0.000000 0.000000 -53.708915 -11.141838 0.455065 10.894520 4.420372 -86.698766 -106.708932 -73.070169 -24.025650 54.959511 30.597096 6.662544 0.000000 0.000000 0.000000 0.000000 0.000000 0.000000 -44.673716 7.894465 3.844393 -30.404218 -3.916538 -17.869684 -21.677041 -12.569924 -9.942699 31.301448 20.724917 -8.408736 0.000000 0.000000 0.000000 0.000000 0.000000 0.000000 -1.379756 4.658646 -47.857538 -1.341962 6.997240 2.021399 16.314470 -29.379410 -3.622994 0.000000 0.000000 0.000000 -3.588865 6.338913 -48.452796 2.962808 -2.018381 0.084147 -0.140685 1.605998 -0.835291 0.000000 0.000000 0.000000
57.750935 84.848168 307.611577 5.891745 -0.325929 44.184312 -1.272738 1.521815 -44.036237 -1.749232 0.995588 0.129252 -4.478505 -6.288972 -1.189948 0.000000 0.000000 0.000000 -61.673945 -19.685666 -5.350709 18.308126 10.564378 -80.864697 -103.496769 -70.290241 -27.815087 58.985659 30.269017 13.537710 0.000000 0.000000 0.000000 0.000000 0.000000 0.000000 -54.377617 5.892375 4.668895 -22.100096 -6.645403 -19.067861 -12.900872 -18.115002 -12.905730 21.082674 20.565599 -2.190295 0.000000 0.000000 0.000000 0.000000 0.000000 0.000000 -2.767868 6.562427 -43.240994 0.217892 5.830206 1.699912 14.173100 -27.706731 -7.916101 0.000000 0.000000 0.000000 -4.470277 7.032523 -44.143916 3.235103 -2.827153 0.081973 -0.955682 3.476370 -2.004347 0.000000 0.000000 0.000000
57.806040 84.939131 307.662518 6.243271 -0.005306 36.567537 -1.472935 1.267062 -36.417103 -1.772440 1.030789 0.155607 -5.346811 -6.633205 -1.096837 0.000000 0.000000 0.000000 -67.107048 -28.505578 -12.905522 25.040798 17.540839 -71.662062 -69.185646 -70.653695 -22.609995 35.624771 46.238666 36.877927 0.000000 0.000000 0.000000 0.000000 0.000000 0.000000 -57.194018 2.630004 4.116122 -16.131610 -9.342516 -18.763176 -9.820163 -24.883948 -16.959217 15.089844 20.343283 5.427913 0.000000 0.000000 0.000000 0.000000 0.000000 0.000000 -5.848343 8.189830 -35.308117 2.848793 5.129512 1.649667 11.806567 -26.564102 -16.343545 0.000000 0.000000 0.000000 -5.405589 7.167825 -36.519262 3.452633 -3.916391 0.075760 -1.922067 4.938093 -2.731121 0.000000 0.000000 0.000000
57.704833 84.882454 307.612203 6.419994 0.388971 25.716864 -1.596238 0.837059 -25.573111 -1.757201 1.026994 0.180708 -6.414262 -7.062385 -0.945656 0.000000 0.000000 0.000000 -72.397648 -36.476612 -21.356874 31.599120 22.888026 -61.488248 -56.626950 -67.091683 -26.034943 17.035530 48.557520 56.801032 0.000000 0.000000 0.000000 0.000000 0.000000 0.000000 -55.376852 -2.631513 2.709776 -13.791428 -10.674187 -17.409437 -4.018059 -27.089689 -16.429385 9.848678 17.797299 11.542606 0.000000 0.000000 0.000000 0.000000 0.000000 0.000000 -10.611369 8.526538 -24.173992 6.313698 4.767084 1.819625 9.695683 -25.724689 -26.045806 0.000000 0.000000 0.000000 -6.557695 6.758081 -25.675597 3.613981 -5.092938 0.081542 -3.054423 5.993300 -3.078799 0.000000 0.000000 0.000000
